<svg xmlns="http://www.w3.org/2000/svg" viewBox="0 0 199.91 140.21"><defs><style>.cls-1{fill:#c067e6;}.cls-2{fill:#c049e6;}.cls-3{fill:#ff3fab;stroke:#d11cab;stroke-linejoin:round;stroke-width:2px;}.cls-4,.cls-5{fill:none;}.cls-5{stroke:#ff3fab;stroke-linecap:round;stroke-miterlimit:10;stroke-width:7px;}.cls-6{fill:#fff;}</style></defs><g id="Body"><path class="cls-1" d="M100,40.18A59.75,59.75,0,0,0,41.21,111l89.41-62.36A59.54,59.54,0,0,0,100,40.18Z" transform="translate(-0.06 -37.39)"/><path class="cls-2" d="M130.62,48.62,41.21,111a59.81,59.81,0,1,0,89.41-62.36Z" transform="translate(-0.06 -37.39)"/></g><g id="Bottom"><path class="cls-3" d="M153.77,135.64c-4.39,0-4.82,7.14-4.85,9.17,0-2-.34-9-3.92-9-3.25,0-3.81,5.67-3.9,8.18,0-2.45-.34-7.88-2.95-7.88s-3.07,5.8-3.11,8c0-2.19-.35-7.89-2.76-7.89s-2.74,4.71-2.83,7c0-2.2-.27-6.68-2.32-6.68s-2.36,4.67-2.36,6.67c-.06-1.94-.39-6.37-2-6.37-2.05,0-2.3,6-2.34,7.36-.17-2.68-.39-7.36-2.26-7.36s-1.87,7.45-1.87,7.45S116.4,137,114,137c-2.43.17-2.76-.91-2.76-.91a1.87,1.87,0,0,1-2,1.55L100,138.8l-9.19-1.2a1.88,1.88,0,0,1-2-1.55s-.33,1.08-2.76.91c-2.42,0-2.34,7.32-2.34,7.32s0-7.45-1.87-7.45-2.08,4.68-2.25,7.36c0-1.4-.3-7.36-2.34-7.36-1.6,0-1.92,4.43-2,6.37,0-2-.21-6.67-2.36-6.67s-2.31,4.48-2.32,6.68c-.09-2.27-.56-7-2.82-7S65,141.93,65,144.12c0-2.21-.38-8-3.11-8s-2.93,5.43-3,7.88c-.09-2.51-.65-8.18-3.9-8.18-3.58,0-3.89,7-3.91,9,0-2-.47-9.17-4.85-9.17-5.11,0-6.05,24.18-6.05,24.18H159.82S158.87,135.64,153.77,135.64Z" transform="translate(-0.06 -37.39)"/><line class="cls-4" x1="199.91" y1="140.21" y2="140.21"/></g><g id="Lashes"><path class="cls-5" d="M68.27,77.06a26.15,26.15,0,0,1-9.93-18.53c0-.46-.06-.92-.08-1.37" transform="translate(-0.06 -37.39)"/><path class="cls-5" d="M106.94,42.85a26.18,26.18,0,0,0-7.69,18" transform="translate(-0.06 -37.39)"/><path class="cls-5" d="M106.94,42.85c.37-.36.74-.72,1.14-1.07s.69-.61,1-.89" transform="translate(-0.06 -37.39)"/><path class="cls-5" d="M149.29,66.13c-.45-.07-.9-.12-1.36-.16A26.13,26.13,0,0,0,128,72.62" transform="translate(-0.06 -37.39)"/></g><g id="Eye"><circle class="cls-6" cx="99.94" cy="62.61" r="39.18"/></g><g id="Eyeball"><circle cx="99.94" cy="62.61" r="33.94"/></g><g id="Shine"><circle class="cls-6" cx="87" cy="50.51" r="7.09"/></g></svg>